<svg width="23" height="22" viewBox="0 0 23 22" fill="none" xmlns="http://www.w3.org/2000/svg">
<path id="Combined shape 16072" fill-rule="evenodd" clip-rule="evenodd" d="M11.5924 0.571045C5.70637 0.571045 0.91748 5.34073 0.91748 11.2059C0.91748 17.07 5.70637 21.8403 11.5924 21.8403C17.4785 21.8403 22.2675 17.07 22.2675 11.2059C22.2675 5.34073 17.4785 0.571045 11.5924 0.571045ZM17.5437 7.65925L10.9745 15.0219C10.8128 15.2026 10.5874 15.2958 10.3603 15.2958C10.1801 15.2958 9.99903 15.2369 9.84754 15.1174L5.74168 11.8446C5.38775 11.5627 5.33035 11.0476 5.61364 10.6942C5.89658 10.342 6.41383 10.2843 6.76775 10.5667L10.2646 13.3535L16.3161 6.57175C16.6167 6.23327 17.1364 6.20296 17.4752 6.50372C17.8143 6.8039 17.8451 7.32077 17.5437 7.65925Z" fill="#3FDBB1"/>
</svg>
